<svg id="visual" viewBox="0 0 900 600" width="900" height="600" xmlns="http://www.w3.org/2000/svg" xmlns:xlink="http://www.w3.org/1999/xlink" version="1.1"><g stroke-width="1" stroke-linejoin="bevel"><path d="M476 334L420 369L492 415Z" fill="#15384f" stroke="#15384f"></path><path d="M420 369L479 461L492 415Z" fill="#1d4e6b" stroke="#1d4e6b"></path><path d="M420 369L404 472L479 461Z" fill="#205a7a" stroke="#205a7a"></path><path d="M476 334L410 271L420 369Z" fill="#0c2435" stroke="#0c2435"></path><path d="M420 369L268 405L404 472Z" fill="#1d4e6b" stroke="#1d4e6b"></path><path d="M568 519L594 381L492 415Z" fill="#297ea6" stroke="#297ea6"></path><path d="M492 415L594 381L476 334Z" fill="#277297" stroke="#277297"></path><path d="M476 334L530 201L410 271Z" fill="#246688" stroke="#246688"></path><path d="M594 381L605 303L476 334Z" fill="#297ea6" stroke="#297ea6"></path><path d="M469 600L568 519L479 461Z" fill="#19435d" stroke="#19435d"></path><path d="M479 461L568 519L492 415Z" fill="#277297" stroke="#277297"></path><path d="M410 271L314 281L420 369Z" fill="#205a7a" stroke="#205a7a"></path><path d="M605 303L530 201L476 334Z" fill="#277297" stroke="#277297"></path><path d="M410 271L339 214L314 281Z" fill="#246688" stroke="#246688"></path><path d="M314 281L268 405L420 369Z" fill="#081a28" stroke="#081a28"></path><path d="M427 169L339 214L410 271Z" fill="#205a7a" stroke="#205a7a"></path><path d="M530 201L427 169L410 271Z" fill="#112e42" stroke="#112e42"></path><path d="M268 405L283 491L404 472Z" fill="#1d4e6b" stroke="#1d4e6b"></path><path d="M404 472L469 600L479 461Z" fill="#277297" stroke="#277297"></path><path d="M420 600L469 600L404 472Z" fill="#0c2435" stroke="#0c2435"></path><path d="M605 303L601 201L530 201Z" fill="#081a28" stroke="#081a28"></path><path d="M499 122L426 129L427 169Z" fill="#246688" stroke="#246688"></path><path d="M306 600L420 600L404 472Z" fill="#277297" stroke="#277297"></path><path d="M727 419L690 317L594 381Z" fill="#0c2435" stroke="#0c2435"></path><path d="M594 381L690 317L605 303Z" fill="#112e42" stroke="#112e42"></path><path d="M605 303L668 216L601 201Z" fill="#112e42" stroke="#112e42"></path><path d="M499 122L427 169L530 201Z" fill="#00101c" stroke="#00101c"></path><path d="M427 169L309 113L339 214Z" fill="#19435d" stroke="#19435d"></path><path d="M601 201L499 122L530 201Z" fill="#1d4e6b" stroke="#1d4e6b"></path><path d="M690 317L668 216L605 303Z" fill="#1d4e6b" stroke="#1d4e6b"></path><path d="M601 201L622 100L499 122Z" fill="#277297" stroke="#277297"></path><path d="M708 490L727 419L594 381Z" fill="#00101c" stroke="#00101c"></path><path d="M690 317L764 300L668 216Z" fill="#112e42" stroke="#112e42"></path><path d="M708 490L594 381L568 519Z" fill="#19435d" stroke="#19435d"></path><path d="M469 600L614 600L568 519Z" fill="#205a7a" stroke="#205a7a"></path><path d="M614 600L708 490L568 519Z" fill="#205a7a" stroke="#205a7a"></path><path d="M268 405L213 517L283 491Z" fill="#15384f" stroke="#15384f"></path><path d="M185 308L196 390L268 405Z" fill="#081a28" stroke="#081a28"></path><path d="M185 308L268 405L314 281Z" fill="#15384f" stroke="#15384f"></path><path d="M283 491L306 600L404 472Z" fill="#081a28" stroke="#081a28"></path><path d="M213 517L306 600L283 491Z" fill="#246688" stroke="#246688"></path><path d="M196 390L213 517L268 405Z" fill="#112e42" stroke="#112e42"></path><path d="M206 168L314 281L339 214Z" fill="#246688" stroke="#246688"></path><path d="M206 168L185 308L314 281Z" fill="#112e42" stroke="#112e42"></path><path d="M128 600L207 600L213 517Z" fill="#0c2435" stroke="#0c2435"></path><path d="M396 0L309 113L426 129Z" fill="#205a7a" stroke="#205a7a"></path><path d="M426 129L309 113L427 169Z" fill="#297ea6" stroke="#297ea6"></path><path d="M777 385L690 317L727 419Z" fill="#15384f" stroke="#15384f"></path><path d="M777 385L764 300L690 317Z" fill="#0c2435" stroke="#0c2435"></path><path d="M796 535L777 385L727 419Z" fill="#277297" stroke="#277297"></path><path d="M780 139L668 137L668 216Z" fill="#0c2435" stroke="#0c2435"></path><path d="M668 216L668 137L601 201Z" fill="#277297" stroke="#277297"></path><path d="M668 137L622 100L601 201Z" fill="#246688" stroke="#246688"></path><path d="M499 122L478 0L426 129Z" fill="#0c2435" stroke="#0c2435"></path><path d="M614 600L711 600L708 490Z" fill="#0c2435" stroke="#0c2435"></path><path d="M708 490L796 535L727 419Z" fill="#277297" stroke="#277297"></path><path d="M309 113L206 168L339 214Z" fill="#277297" stroke="#277297"></path><path d="M213 517L207 600L306 600Z" fill="#297ea6" stroke="#297ea6"></path><path d="M84 499L213 517L196 390Z" fill="#112e42" stroke="#112e42"></path><path d="M73 227L121 321L185 308Z" fill="#112e42" stroke="#112e42"></path><path d="M185 308L121 321L196 390Z" fill="#00101c" stroke="#00101c"></path><path d="M711 600L796 535L708 490Z" fill="#1d4e6b" stroke="#1d4e6b"></path><path d="M121 321L96 393L196 390Z" fill="#081a28" stroke="#081a28"></path><path d="M586 0L478 0L499 122Z" fill="#112e42" stroke="#112e42"></path><path d="M309 113L190 100L206 168Z" fill="#00101c" stroke="#00101c"></path><path d="M478 0L396 0L426 129Z" fill="#205a7a" stroke="#205a7a"></path><path d="M274 0L190 100L309 113Z" fill="#0c2435" stroke="#0c2435"></path><path d="M206 168L73 227L185 308Z" fill="#205a7a" stroke="#205a7a"></path><path d="M0 321L0 396L96 393Z" fill="#205a7a" stroke="#205a7a"></path><path d="M668 137L675 0L622 100Z" fill="#19435d" stroke="#19435d"></path><path d="M622 100L586 0L499 122Z" fill="#112e42" stroke="#112e42"></path><path d="M764 300L780 139L668 216Z" fill="#297ea6" stroke="#297ea6"></path><path d="M833 172L780 139L764 300Z" fill="#246688" stroke="#246688"></path><path d="M833 172L764 300L900 296Z" fill="#15384f" stroke="#15384f"></path><path d="M675 0L586 0L622 100Z" fill="#081a28" stroke="#081a28"></path><path d="M96 393L84 499L196 390Z" fill="#0c2435" stroke="#0c2435"></path><path d="M84 499L128 600L213 517Z" fill="#15384f" stroke="#15384f"></path><path d="M76 95L73 227L206 168Z" fill="#297ea6" stroke="#297ea6"></path><path d="M96 393L0 466L84 499Z" fill="#0c2435" stroke="#0c2435"></path><path d="M900 296L764 300L777 385Z" fill="#0c2435" stroke="#0c2435"></path><path d="M780 139L675 0L668 137Z" fill="#1d4e6b" stroke="#1d4e6b"></path><path d="M396 0L274 0L309 113Z" fill="#297ea6" stroke="#297ea6"></path><path d="M190 100L76 95L206 168Z" fill="#277297" stroke="#277297"></path><path d="M711 600L831 600L796 535Z" fill="#1d4e6b" stroke="#1d4e6b"></path><path d="M900 483L900 396L777 385Z" fill="#00101c" stroke="#00101c"></path><path d="M780 0L675 0L780 139Z" fill="#081a28" stroke="#081a28"></path><path d="M900 483L777 385L796 535Z" fill="#15384f" stroke="#15384f"></path><path d="M900 396L900 296L777 385Z" fill="#297ea6" stroke="#297ea6"></path><path d="M274 0L228 0L190 100Z" fill="#00101c" stroke="#00101c"></path><path d="M831 600L900 483L796 535Z" fill="#277297" stroke="#277297"></path><path d="M0 321L96 393L121 321Z" fill="#081a28" stroke="#081a28"></path><path d="M84 499L0 600L128 600Z" fill="#19435d" stroke="#19435d"></path><path d="M0 183L0 321L73 227Z" fill="#081a28" stroke="#081a28"></path><path d="M73 227L0 321L121 321Z" fill="#1d4e6b" stroke="#1d4e6b"></path><path d="M0 396L0 466L96 393Z" fill="#00101c" stroke="#00101c"></path><path d="M131 0L76 95L190 100Z" fill="#246688" stroke="#246688"></path><path d="M900 296L900 166L833 172Z" fill="#19435d" stroke="#19435d"></path><path d="M833 172L900 80L780 139Z" fill="#0c2435" stroke="#0c2435"></path><path d="M831 600L900 600L900 483Z" fill="#0c2435" stroke="#0c2435"></path><path d="M900 80L780 0L780 139Z" fill="#00101c" stroke="#00101c"></path><path d="M76 95L0 183L73 227Z" fill="#1d4e6b" stroke="#1d4e6b"></path><path d="M228 0L131 0L190 100Z" fill="#081a28" stroke="#081a28"></path><path d="M76 95L0 118L0 183Z" fill="#112e42" stroke="#112e42"></path><path d="M0 466L0 600L84 499Z" fill="#1d4e6b" stroke="#1d4e6b"></path><path d="M900 166L900 80L833 172Z" fill="#277297" stroke="#277297"></path><path d="M0 0L0 118L76 95Z" fill="#277297" stroke="#277297"></path><path d="M900 80L900 0L780 0Z" fill="#00101c" stroke="#00101c"></path><path d="M131 0L0 0L76 95Z" fill="#0c2435" stroke="#0c2435"></path></g></svg>